<svg width="57" height="65" viewBox="0 0 57 65" fill="none" xmlns="http://www.w3.org/2000/svg">
<path d="M29.4941 0.223387C37.9209 5.33982 46.3482 10.1554 55.0757 14.9711C55.6776 15.573 56.2795 16.4759 56.2795 17.0777V46.8731C56.2795 47.7759 55.6776 48.6787 54.7748 48.9796C46.348 54.0961 37.9207 58.9117 29.4942 63.7274C28.5914 64.3293 27.6886 64.3293 26.7858 63.7274C18.359 58.9119 9.93171 53.7953 1.20418 48.9796C0.602295 48.3778 0.000366211 47.7758 0.000366211 46.8731V17.0777C0.000366211 16.1749 0.60225 15.2721 1.50513 14.9711C9.93193 10.1556 18.3592 5.0391 26.7857 0.223387C27.6885 -0.0775548 28.5913 -0.0775548 29.4941 0.223387ZM27.9894 5.33982C20.4653 9.85446 12.6395 14.0676 5.11623 18.5822V45.3681C12.6403 49.8827 20.4661 54.3973 27.9894 58.9116C35.8142 54.3969 43.6391 49.8824 51.1635 45.3681V18.5822C43.6395 14.0676 35.8137 9.85446 27.9894 5.33982Z" fill="#1C1D53"/>
<rect x="20.8627" y="4.63391" width="14.681" height="6.18149" fill="#1C1D53"/>
<path d="M16.227 10.0406C16.227 9.61389 16.5729 9.26794 16.9997 9.26794H39.4076C39.8343 9.26794 40.1803 9.61389 40.1803 10.0406V53.311C40.1803 56.725 37.4127 59.4925 33.9988 59.4925H22.4085C18.9945 59.4925 16.227 56.725 16.227 53.311V10.0406Z" fill="#1C1D53"/>
<rect x="3.86481" y="11.5884" width="23.9533" height="40.9524" rx="6.18149" fill="#1C1D53"/>
<rect x="27.8177" y="10.814" width="23.9533" height="41.7251" rx="6.18149" fill="#1C1D53"/>
<path d="M14.0981 38.7732L15.5873 36.9452L28.6294 37.5008L27.1164 39.358" fill="white"/>
<path d="M13.8019 21.575H18.0333L32.043 40.6847H27.7442" fill="white"/>
<path d="M17.6278 27.5658L19.9058 30.753L10.3469 47.0298H6.81793" fill="white"/>
<path d="M37.2577 40.3398H33.0263L19.0165 21.2301H23.3154" fill="white"/>
<path d="M37.6284 40.1837L35.0689 36.4691L45.8092 17.4987H49.7743" fill="white"/>
</svg>
